<?xml version="1.0" encoding="utf-8"?>
<!-- Generator: Adobe Illustrator 23.0.0, SVG Export Plug-In . SVG Version: 6.00 Build 0)  -->
<svg version="1.1" id="Layer_1" xmlns="http://www.w3.org/2000/svg" xmlns:xlink="http://www.w3.org/1999/xlink" x="0px" y="0px"
	 viewBox="0 0 34.3 30" style="enable-background:new 0 0 34.3 30;" xml:space="preserve">
<style type="text/css">
	.st0{fill:#8B5B29;}
</style>
<g transform="translate(0)">
	<path class="st0" d="M28.9,0c3,0,5.4,2.4,5.4,5.3c0,0,0,0,0,0V30l-8.6-7.5H5.4c-3,0-5.4-2.4-5.4-5.3c0,0,0,0,0,0V5.4
		C0,2.4,2.4,0,5.3,0c0,0,0,0,0,0H28.9z M26.8,4.8H7.5c-0.6,0-1.1,0.5-1.1,1.1C6.4,6.5,6.9,7,7.5,7h19.3c0.6,0,1.1-0.5,1.1-1.1
		C27.9,5.3,27.4,4.8,26.8,4.8z M26.8,10.2H7.5c-0.6,0-1.1,0.5-1.1,1.1c0,0.6,0.5,1.1,1.1,1.1h19.3c0.6,0,1.1-0.5,1.1-1.1
		C27.9,10.7,27.4,10.2,26.8,10.2z M26.8,15.5h-15c-0.6,0-1.1,0.5-1.1,1.1c0,0.6,0.5,1.1,1.1,1.1h15c0.6,0,1.1-0.5,1.1-1.1
		C27.9,16,27.4,15.5,26.8,15.5z"/>
</g>
</svg>
