<?xml version="1.0" encoding="utf-8"?>
<!-- Generator: Adobe Illustrator 23.0.0, SVG Export Plug-In . SVG Version: 6.00 Build 0)  -->
<svg version="1.1" id="Layer_1" xmlns="http://www.w3.org/2000/svg" xmlns:xlink="http://www.w3.org/1999/xlink" x="0px" y="0px"
	 viewBox="0 0 30 29.2" style="enable-background:new 0 0 30 29.2;" xml:space="preserve">
<style type="text/css">
	.st0{fill:#E87722;}
</style>
<g transform="translate(-2.4 -3.8)">
	<g transform="translate(2.4 3.8)">
		<path class="st0" d="M27.4,2.9h-2.5v1.1c0,2-1.6,3.6-3.6,3.6s-3.6-1.6-3.6-3.6V2.9h-5.2v1.1c0,2-1.6,3.6-3.6,3.6S5.1,6.1,5.1,4.1
			V2.9H2.7C1.2,2.9,0,4.1,0,5.5c0,0,0,0,0,0v4.9h30V5.6C30,4.1,28.9,2.9,27.4,2.9z"/>
		<path class="st0" d="M8.8,5.9c1,0,1.8-0.8,1.8-1.8V1.8c0-1-0.8-1.8-1.8-1.8C7.8,0,7,0.8,7,1.8v2.3C7,5,7.7,5.9,8.8,5.9
			C8.7,5.9,8.8,5.9,8.8,5.9z"/>
		<path class="st0" d="M21.3,5.9c1,0,1.8-0.8,1.8-1.8c0,0,0,0,0,0V1.8c0-1-0.8-1.8-1.8-1.8c-1,0-1.8,0.8-1.8,1.8c0,0,0,0,0,0v2.3
			C19.5,5.1,20.3,5.9,21.3,5.9C21.3,5.9,21.3,5.9,21.3,5.9z"/>
		<path class="st0" d="M0,26.6c0,1.4,1.2,2.6,2.6,2.6c0,0,0,0,0,0h24.7c1.4,0,2.6-1.2,2.6-2.6c0,0,0,0,0,0V12.3H0L0,26.6L0,26.6z
			 M11.4,19.3l2-0.3c0.1,0,0.3-0.1,0.3-0.3l0.9-1.7c0.2-0.3,0.5-0.4,0.8-0.2c0.1,0.1,0.2,0.1,0.2,0.2l0.9,1.8
			c0.1,0.1,0.2,0.2,0.3,0.3l1.9,0.3c0.3,0,0.5,0.3,0.5,0.6c0,0.1-0.1,0.3-0.2,0.3l-1.4,1.4c-0.1,0.1-0.1,0.2-0.1,0.4l0.3,1.9
			c0.1,0.3-0.1,0.6-0.4,0.7c-0.1,0-0.3,0-0.4-0.1l-1.8-0.9c-0.1-0.1-0.3-0.1-0.4,0L13,24.7c-0.3,0.1-0.6,0-0.8-0.2
			c-0.1-0.1-0.1-0.2-0.1-0.4l0.3-2c0-0.1,0-0.3-0.1-0.4l-1.4-1.4c-0.2-0.2-0.2-0.6,0-0.9C11.1,19.4,11.3,19.4,11.4,19.3z"/>
	</g>
</g>
</svg>
