<?xml version="1.0" encoding="utf-8"?>
<!-- Generator: Adobe Illustrator 23.0.0, SVG Export Plug-In . SVG Version: 6.00 Build 0)  -->
<svg version="1.1" id="Layer_1" xmlns="http://www.w3.org/2000/svg" xmlns:xlink="http://www.w3.org/1999/xlink" x="0px" y="0px"
	 viewBox="0 0 41 41" style="enable-background:new 0 0 41 41;" xml:space="preserve">
<style type="text/css">
	.st0{fill:#789D4A;}
</style>
<path class="st0" d="M20.5,0C9.2,0,0,9.2,0,20.5S9.2,41,20.5,41S41,31.8,41,20.5C41,9.2,31.8,0,20.5,0z M20.5,38.6
	c-10,0-18.1-8.1-18.1-18.1S10.5,2.4,20.5,2.4s18.1,8.1,18.1,18.1c0,0,0,0,0,0C38.6,30.5,30.5,38.6,20.5,38.6z M29.9,23.8
	c-5.2,5.2-13.6,5.2-18.7,0c-0.4-0.4-1-0.4-1.4,0c-0.4,0.4-0.4,1,0,1.4c0,0,0,0,0,0c5.9,5.9,15.6,5.9,21.5,0c0.4-0.4,0.4-1,0-1.4
	C30.9,23.5,30.3,23.4,29.9,23.8C29.9,23.8,29.9,23.8,29.9,23.8z M14,17.1c0.9,0,1.6-0.7,1.6-1.6s-0.7-1.6-1.6-1.6s-1.6,0.7-1.6,1.6
	C12.4,16.4,13.1,17.1,14,17.1C14,17.1,14,17.1,14,17.1z M26.8,17.1c0.9,0,1.6-0.7,1.6-1.6s-0.7-1.6-1.6-1.6c-0.9,0-1.6,0.7-1.6,1.6
	c0,0,0,0,0,0C25.2,16.4,25.9,17.1,26.8,17.1z"/>
</svg>
