<?xml version="1.0" encoding="utf-8"?>
<!-- Generator: Adobe Illustrator 23.0.0, SVG Export Plug-In . SVG Version: 6.00 Build 0)  -->
<svg version="1.1" id="Layer_1" xmlns="http://www.w3.org/2000/svg" xmlns:xlink="http://www.w3.org/1999/xlink" x="0px" y="0px" width="50" height ="50"
	 viewBox="0 0 21.5 30.3" style="enable-background:new 0 0 21.5 30.3;" xml:space="preserve">
<style type="text/css">
	.st0{fill:#789D4A;}
</style>
<path class="st0" d="M10.7,0C4.8,0,0,4.8,0,10.8c0,4.4,5.8,13.8,8.9,18.5c0.7,1,2.1,1.3,3.1,0.7c0.3-0.2,0.5-0.4,0.7-0.7
	c3.1-4.7,8.9-14.2,8.9-18.5C21.5,4.8,16.7,0,10.7,0z M10.7,15.1c-2.5,0-4.5-2-4.5-4.5c0-2.5,2-4.5,4.5-4.5s4.5,2,4.5,4.5
	C15.2,13.1,13.2,15.1,10.7,15.1C10.8,15.1,10.8,15.1,10.7,15.1z"/>
</svg>
