<?xml version="1.0" encoding="utf-8"?>
<!-- Generator: Adobe Illustrator 23.0.0, SVG Export Plug-In . SVG Version: 6.00 Build 0)  -->
<svg version="1.1" id="Layer_1" xmlns="http://www.w3.org/2000/svg" xmlns:xlink="http://www.w3.org/1999/xlink" x="0px" y="0px"
	 viewBox="0 0 24.3 24.3" style="enable-background:new 0 0 24.3 24.3;" xml:space="preserve">
<style type="text/css">
	.st0{fill:#AF272F;}
</style>
<path class="st0" d="M15.6,17.8c-0.1,0-0.3,0-0.4-0.1c-1.8-1.2-4.2-1.2-6,0c-0.4,0.2-0.8,0.1-1.1-0.2c-0.2-0.4-0.1-0.8,0.2-1.1l0,0
	c2.3-1.5,5.3-1.5,7.7,0c0.4,0.2,0.4,0.7,0.2,1.1C16.1,17.6,15.8,17.8,15.6,17.8L15.6,17.8z"/>
<path class="st0" d="M12.2,24.3C5.4,24.3,0,18.9,0,12.2S5.4,0,12.2,0s12.2,5.4,12.2,12.2l0,0C24.3,18.9,18.9,24.3,12.2,24.3z
	 M12.2,1.5C6.3,1.5,1.5,6.3,1.5,12.2s4.8,10.6,10.6,10.6S22.8,18,22.8,12.2C22.8,6.3,18,1.5,12.2,1.5z"/>
<circle class="st0" cx="8.8" cy="8.7" r="1.1"/>
<circle class="st0" cx="15.6" cy="8.7" r="1.1"/>
</svg>
